<svg width="1600" height="900" viewBox="0 0 1600 900" fill="none" xmlns="http://www.w3.org/2000/svg">
  <defs>
    <linearGradient id="bg" x1="0" y1="0" x2="1600" y2="900" gradientUnits="userSpaceOnUse">
      <stop stop-color="#ffffff"/>
      <stop offset="1" stop-color="#f1f7ff"/>
    </linearGradient>
    <linearGradient id="blue" x1="130" y1="180" x2="1450" y2="760" gradientUnits="userSpaceOnUse">
      <stop stop-color="#0f766e"/>
      <stop offset="0.5" stop-color="#2563eb"/>
      <stop offset="1" stop-color="#1e40af"/>
    </linearGradient>
    <filter id="shadow" x="-20%" y="-20%" width="140%" height="140%" color-interpolation-filters="sRGB">
      <feDropShadow dx="0" dy="16" stdDeviation="22" flood-color="#1e3a8a" flood-opacity="0.12"/>
    </filter>
  </defs>
  <style>
    text { font-family: -apple-system, BlinkMacSystemFont, "PingFang SC", "Microsoft YaHei", "Noto Sans CJK SC", sans-serif; letter-spacing: 0; }
    .title { font-size: 40px; font-weight: 800; fill: #0f172a; }
    .subtitle { font-size: 22px; font-weight: 500; fill: #475569; }
    .stage { font-size: 22px; font-weight: 800; fill: #0f172a; }
    .small { font-size: 17px; font-weight: 600; fill: #64748b; }
  </style>
  <rect width="1600" height="900" fill="url(#bg)"/>
  <path d="M1410 0C1320 130 1395 225 1600 285V0H1410Z" fill="#dbeafe" opacity="0.75"/>
  <path d="M0 210C160 250 170 360 55 500C20 545 0 600 0 665V210Z" fill="#e0f2fe" opacity="0.55"/>
  <g opacity="0.3">
    <circle cx="1460" cy="260" r="3" fill="#93c5fd"/>
    <circle cx="1490" cy="260" r="3" fill="#93c5fd"/>
    <circle cx="1520" cy="260" r="3" fill="#93c5fd"/>
    <circle cx="1550" cy="260" r="3" fill="#93c5fd"/>
    <circle cx="1460" cy="290" r="3" fill="#93c5fd"/>
    <circle cx="1490" cy="290" r="3" fill="#93c5fd"/>
    <circle cx="1520" cy="290" r="3" fill="#93c5fd"/>
    <circle cx="1550" cy="290" r="3" fill="#93c5fd"/>
  </g>

  <text x="96" y="82" class="title">行政审批预审流水线</text>
  <text x="96" y="122" class="subtitle">把散乱申请材料转成缺失项、风险点、补充清单、沟通话术和人工复核点</text>

  <path d="M165 705C250 795 1340 795 1430 705" stroke="#60a5fa" stroke-width="10" stroke-linecap="round"/>
  <path d="M1430 705C1465 680 1482 650 1482 618" stroke="#60a5fa" stroke-width="10" stroke-linecap="round"/>
  <circle cx="270" cy="755" r="9" fill="#2563eb"/>
  <circle cx="500" cy="755" r="9" fill="#2563eb"/>
  <circle cx="730" cy="755" r="9" fill="#2563eb"/>
  <circle cx="960" cy="755" r="9" fill="#2563eb"/>
  <circle cx="1190" cy="755" r="9" fill="#2563eb"/>
  <circle cx="1420" cy="755" r="9" fill="#2563eb"/>

  <g filter="url(#shadow)">
    <path d="M68 595H250V345H98C81 345 68 358 68 375V595Z" fill="#0f766e"/>
    <path d="M68 415H250V610C250 628 236 642 218 642H100C82 642 68 628 68 610V415Z" fill="#0f766e"/>
    <rect x="110" y="280" width="118" height="158" rx="12" fill="#ffffff" stroke="#dbeafe" stroke-width="2"/>
    <path d="M135 325H200M135 355H212M135 385H188" stroke="#93c5fd" stroke-width="8" stroke-linecap="round"/>
    <rect x="88" y="350" width="118" height="158" rx="12" fill="#f8fafc" stroke="#dbeafe" stroke-width="2"/>
    <path d="M113 396H178M113 425H190M113 455H165" stroke="#60a5fa" stroke-width="8" stroke-linecap="round"/>
    <circle cx="235" cy="540" r="30" fill="#ffffff"/>
    <path d="M225 540H248M240 528L252 540L240 552" stroke="#0f766e" stroke-width="7" stroke-linecap="round" stroke-linejoin="round"/>
  </g>
  <text x="160" y="678" text-anchor="middle" class="stage">原始申请材料</text>
  <text x="160" y="706" text-anchor="middle" class="small">表单、附件、聊天记录</text>

  <g filter="url(#shadow)">
    <rect x="300" y="230" width="140" height="220" rx="24" fill="#ffffff" stroke="#dbeafe"/>
    <circle cx="370" cy="318" r="42" fill="#eff6ff"/>
    <rect x="350" y="278" width="52" height="72" rx="8" fill="#ffffff" stroke="#93c5fd" stroke-width="3"/>
    <path d="M362 300H389M362 321H382" stroke="#60a5fa" stroke-width="5" stroke-linecap="round"/>
    <circle cx="405" cy="350" r="26" fill="none" stroke="#334155" stroke-width="7"/>
    <path d="M424 370L447 393" stroke="#334155" stroke-width="7" stroke-linecap="round"/>
    <circle cx="370" cy="512" r="8" fill="#0f766e"/>
    <line x1="370" y1="450" x2="370" y2="512" stroke="#0f766e" stroke-width="4"/>
    <rect x="300" y="530" width="140" height="155" rx="22" fill="#ffffff" stroke="#dbeafe"/>
    <path d="M348 604L370 570L392 604H376V635H364V604H348Z" fill="#7dd3fc"/>
  </g>
  <rect x="310" y="392" width="120" height="42" rx="16" fill="#f8fafc" stroke="#dbeafe"/>
  <text x="370" y="421" text-anchor="middle" class="stage">识别类型</text>
  <text x="370" y="715" text-anchor="middle" class="small">判断属于哪类审批</text>

  <g filter="url(#shadow)">
    <rect x="520" y="230" width="140" height="220" rx="24" fill="#ffffff" stroke="#dbeafe"/>
    <rect x="555" y="285" width="70" height="92" rx="8" fill="#f8fafc" stroke="#bfdbfe" stroke-width="3"/>
    <path d="M570 310H610M570 333H622M570 356H600" stroke="#60a5fa" stroke-width="6" stroke-linecap="round"/>
    <path d="M535 286H555V306H535V286ZM625 356H645V376H625V356Z" stroke="#0f766e" stroke-width="4"/>
    <circle cx="590" cy="512" r="8" fill="#0f766e"/>
    <line x1="590" y1="450" x2="590" y2="512" stroke="#0f766e" stroke-width="4"/>
    <rect x="520" y="530" width="140" height="155" rx="22" fill="#ffffff" stroke="#dbeafe"/>
    <rect x="552" y="568" width="76" height="22" rx="8" fill="#dbeafe"/>
    <rect x="552" y="608" width="58" height="22" rx="8" fill="#99f6e4"/>
    <rect x="552" y="648" width="76" height="22" rx="8" fill="#fde68a"/>
  </g>
  <rect x="530" y="392" width="120" height="42" rx="16" fill="#f8fafc" stroke="#dbeafe"/>
  <text x="590" y="421" text-anchor="middle" class="stage">提取信息</text>
  <text x="590" y="715" text-anchor="middle" class="small">申请人、资产、时间</text>

  <g filter="url(#shadow)">
    <rect x="740" y="230" width="140" height="220" rx="24" fill="#ffffff" stroke="#dbeafe"/>
    <rect x="778" y="270" width="64" height="122" rx="10" fill="#ffffff" stroke="#3b82f6" stroke-width="7"/>
    <rect x="793" y="250" width="34" height="22" rx="8" fill="#64748b"/>
    <path d="M794 310L803 319L820 298M794 350L803 359L820 338" stroke="#0f766e" stroke-width="6" stroke-linecap="round" stroke-linejoin="round"/>
    <circle cx="812" cy="512" r="8" fill="#0f766e"/>
    <line x1="812" y1="450" x2="812" y2="512" stroke="#0f766e" stroke-width="4"/>
    <rect x="740" y="530" width="140" height="155" rx="22" fill="#ffffff" stroke="#dbeafe"/>
    <path d="M780 586L792 598L817 570M780 635L792 647L817 619" stroke="#0f766e" stroke-width="7" stroke-linecap="round" stroke-linejoin="round"/>
    <path d="M830 586H850M830 635H852" stroke="#cbd5e1" stroke-width="8" stroke-linecap="round"/>
  </g>
  <rect x="752" y="392" width="120" height="42" rx="16" fill="#f8fafc" stroke="#dbeafe"/>
  <text x="812" y="421" text-anchor="middle" class="stage">检查缺失</text>
  <text x="812" y="715" text-anchor="middle" class="small">字段、附件、证明</text>

  <g filter="url(#shadow)">
    <rect x="960" y="230" width="140" height="220" rx="24" fill="#ffffff" stroke="#dbeafe"/>
    <path d="M1030 272L1072 294V342C1072 370 1052 391 1030 400C1008 391 988 370 988 342V294L1030 272Z" fill="#f59e0b"/>
    <path d="M1030 307V344M1030 368V370" stroke="#ffffff" stroke-width="9" stroke-linecap="round"/>
    <circle cx="1030" cy="512" r="8" fill="#0f766e"/>
    <line x1="1030" y1="450" x2="1030" y2="512" stroke="#0f766e" stroke-width="4"/>
    <rect x="960" y="530" width="140" height="155" rx="22" fill="#ffffff" stroke="#dbeafe"/>
    <path d="M995 582L1045 570V602L995 590V582ZM995 632L1045 620V652L995 640V632Z" fill="#f97316"/>
    <path d="M1058 582H1080M1058 632H1080" stroke="#cbd5e1" stroke-width="8" stroke-linecap="round"/>
  </g>
  <rect x="970" y="392" width="120" height="42" rx="16" fill="#fff7ed" stroke="#fed7aa"/>
  <text x="1030" y="421" text-anchor="middle" class="stage">标注风险</text>
  <text x="1030" y="715" text-anchor="middle" class="small">不一致、越权、合规</text>

  <g filter="url(#shadow)">
    <rect x="1180" y="230" width="140" height="220" rx="24" fill="#ffffff" stroke="#dbeafe"/>
    <rect x="1214" y="278" width="80" height="100" rx="9" fill="#ffffff" stroke="#cbd5e1" stroke-width="2"/>
    <path d="M1235 310H1275M1235 340H1266" stroke="#93c5fd" stroke-width="7" stroke-linecap="round"/>
    <circle cx="1225" cy="310" r="7" fill="#2563eb"/>
    <circle cx="1225" cy="340" r="7" fill="#0f766e"/>
    <circle cx="1250" cy="512" r="8" fill="#0f766e"/>
    <line x1="1250" y1="450" x2="1250" y2="512" stroke="#0f766e" stroke-width="4"/>
    <rect x="1180" y="530" width="140" height="155" rx="22" fill="#ffffff" stroke="#dbeafe"/>
    <circle cx="1215" cy="592" r="16" fill="#0f766e"/>
    <path d="M1208 592H1222M1215 585V599" stroke="#ffffff" stroke-width="5" stroke-linecap="round"/>
    <path d="M1245 592H1290M1245 635H1280" stroke="#cbd5e1" stroke-width="8" stroke-linecap="round"/>
  </g>
  <rect x="1190" y="392" width="120" height="42" rx="16" fill="#f8fafc" stroke="#dbeafe"/>
  <text x="1250" y="421" text-anchor="middle" class="stage">补充清单</text>
  <text x="1250" y="715" text-anchor="middle" class="small">一次说明要补什么</text>

  <g filter="url(#shadow)">
    <rect x="1390" y="230" width="140" height="220" rx="24" fill="#ffffff" stroke="#dbeafe"/>
    <circle cx="1460" cy="300" r="40" fill="#bfdbfe"/>
    <circle cx="1442" cy="300" r="7" fill="#ffffff"/>
    <circle cx="1460" cy="300" r="7" fill="#ffffff"/>
    <circle cx="1478" cy="300" r="7" fill="#ffffff"/>
    <circle cx="1460" cy="512" r="8" fill="#0f766e"/>
    <line x1="1460" y1="450" x2="1460" y2="512" stroke="#0f766e" stroke-width="4"/>
    <rect x="1390" y="530" width="140" height="155" rx="22" fill="#ffffff" stroke="#dbeafe"/>
    <circle cx="1460" cy="590" r="26" fill="#99f6e4"/>
    <path d="M1415 652C1426 616 1494 616 1505 652" fill="#dbeafe"/>
  </g>
  <rect x="1400" y="392" width="120" height="42" rx="16" fill="#f8fafc" stroke="#dbeafe"/>
  <text x="1460" y="421" text-anchor="middle" class="stage">人工复核</text>
  <text x="1460" y="715" text-anchor="middle" class="small">人确认制度与结果</text>

  <path d="M450 340H512M670 340H732M890 340H952M1110 340H1172M1330 340H1382" stroke="#3b82f6" stroke-width="8" stroke-linecap="round"/>
  <path d="M505 325L522 340L505 355M725 325L742 340L725 355M945 325L962 340L945 355M1165 325L1182 340L1165 355M1375 325L1392 340L1375 355" stroke="#3b82f6" stroke-width="7" stroke-linecap="round" stroke-linejoin="round"/>

  <g filter="url(#shadow)">
    <rect x="1450" y="575" width="120" height="120" rx="26" fill="#ffffff" stroke="#dbeafe"/>
    <circle cx="1510" cy="620" r="28" fill="#0f766e"/>
    <rect x="1484" y="648" width="52" height="32" rx="6" fill="#0f766e"/>
    <circle cx="1552" cy="616" r="30" fill="#ffffff" stroke="#dbeafe"/>
    <path d="M1540 617L1550 627L1568 604" stroke="#0f766e" stroke-width="7" stroke-linecap="round" stroke-linejoin="round"/>
  </g>
  <rect x="1335" y="792" width="245" height="70" rx="24" fill="#ffffff" stroke="#bfdbfe"/>
  <text x="1458" y="823" text-anchor="middle" class="stage">预审输出</text>
  <text x="1458" y="851" text-anchor="middle" class="small">摘要 + 话术 + 复核点</text>
</svg>
