<svg width="1600" height="900" viewBox="0 0 1600 900" fill="none" xmlns="http://www.w3.org/2000/svg">
  <defs>
    <linearGradient id="bg" x1="0" y1="0" x2="1600" y2="900" gradientUnits="userSpaceOnUse">
      <stop stop-color="#ffffff"/>
      <stop offset="1" stop-color="#f3f8ff"/>
    </linearGradient>
    <linearGradient id="mark" x1="850" y1="250" x2="1110" y2="520" gradientUnits="userSpaceOnUse">
      <stop stop-color="#0f766e"/>
      <stop offset="0.55" stop-color="#2563eb"/>
      <stop offset="1" stop-color="#1e40af"/>
    </linearGradient>
    <filter id="shadow" x="-20%" y="-20%" width="140%" height="140%" color-interpolation-filters="sRGB">
      <feDropShadow dx="0" dy="18" stdDeviation="22" flood-color="#1e3a8a" flood-opacity="0.12"/>
    </filter>
  </defs>
  <style>
    text { font-family: -apple-system, BlinkMacSystemFont, "PingFang SC", "Microsoft YaHei", "Noto Sans CJK SC", sans-serif; letter-spacing: 0; }
    .title { font-size: 40px; font-weight: 800; fill: #0f172a; }
    .subtitle { font-size: 22px; font-weight: 500; fill: #475569; }
    .stage { font-size: 24px; font-weight: 800; fill: #0f172a; }
    .small { font-size: 17px; font-weight: 600; fill: #64748b; }
    .ribbon { font-size: 22px; font-weight: 800; fill: #0f766e; }
  </style>
  <rect width="1600" height="900" fill="url(#bg)"/>
  <path d="M0 60C120 18 280 38 420 0H0V60Z" fill="#e0f2fe" opacity="0.75"/>
  <path d="M1420 900C1300 820 1345 730 1600 710V900H1420Z" fill="#dbeafe" opacity="0.65"/>
  <g opacity="0.3">
    <circle cx="1320" cy="80" r="4" fill="#93c5fd"/>
    <circle cx="1360" cy="80" r="4" fill="#93c5fd"/>
    <circle cx="1400" cy="80" r="4" fill="#93c5fd"/>
    <circle cx="1440" cy="80" r="4" fill="#93c5fd"/>
    <circle cx="1480" cy="80" r="4" fill="#93c5fd"/>
    <circle cx="1520" cy="80" r="4" fill="#93c5fd"/>
    <circle cx="1320" cy="120" r="4" fill="#93c5fd"/>
    <circle cx="1360" cy="120" r="4" fill="#93c5fd"/>
    <circle cx="1400" cy="120" r="4" fill="#93c5fd"/>
    <circle cx="1440" cy="120" r="4" fill="#93c5fd"/>
    <circle cx="1480" cy="120" r="4" fill="#93c5fd"/>
    <circle cx="1520" cy="120" r="4" fill="#93c5fd"/>
  </g>

  <text x="96" y="82" class="title">从一次提示词到部门工作流</text>
  <text x="96" y="122" class="subtitle">把个人经验沉淀为可复用资产：提示词、模板、本地 Skill、团队流程，再用 Record &amp; Replay 持续改进</text>

  <g filter="url(#shadow)">
    <rect x="95" y="260" width="230" height="245" rx="24" fill="#ffffff" stroke="#dbeafe"/>
    <path d="M150 375C195 340 250 342 290 388C245 425 190 420 150 375Z" fill="#f1f5f9"/>
    <rect x="142" y="308" width="70" height="92" rx="10" fill="#ffffff" stroke="#e2e8f0" stroke-width="3" transform="rotate(-10 142 308)"/>
    <rect x="205" y="315" width="70" height="92" rx="10" fill="#ffffff" stroke="#e2e8f0" stroke-width="3" transform="rotate(8 205 315)"/>
    <rect x="170" y="345" width="80" height="104" rx="10" fill="#ffffff" stroke="#bfdbfe" stroke-width="3"/>
    <path d="M190 377H230M190 405H240M190 432H220" stroke="#93c5fd" stroke-width="7" stroke-linecap="round"/>
    <rect x="255" y="352" width="30" height="34" rx="6" fill="#fbbf24"/>
    <circle cx="160" cy="458" r="20" fill="#e2e8f0"/>
  </g>
  <text x="210" y="548" text-anchor="middle" class="stage">高频任务</text>
  <text x="210" y="579" text-anchor="middle" class="small">每周重复出现</text>

  <g filter="url(#shadow)">
    <rect x="405" y="260" width="230" height="245" rx="24" fill="#ffffff" stroke="#dbeafe"/>
    <rect x="450" y="310" width="140" height="118" rx="18" fill="#eff6ff" stroke="#bfdbfe" stroke-width="3"/>
    <circle cx="478" cy="345" r="10" fill="#2563eb"/>
    <path d="M502 345H565M465 382H570M465 412H540" stroke="#93c5fd" stroke-width="8" stroke-linecap="round"/>
    <rect x="450" y="450" width="140" height="26" rx="12" fill="#dbeafe"/>
    <circle cx="602" cy="438" r="24" fill="#ffffff" stroke="#dbeafe"/>
    <path d="M592 438H612M602 428V448" stroke="#0f766e" stroke-width="6" stroke-linecap="round"/>
  </g>
  <text x="520" y="548" text-anchor="middle" class="stage">好提示词</text>
  <text x="520" y="579" text-anchor="middle" class="small">目标、输入、边界</text>

  <g filter="url(#shadow)">
    <rect x="715" y="260" width="230" height="245" rx="24" fill="#ffffff" stroke="#99f6e4" stroke-width="3"/>
    <rect x="760" y="300" width="140" height="168" rx="18" fill="#ecfeff" stroke="#99f6e4" stroke-width="3"/>
    <path d="M790 340L800 350L820 326M790 390L800 400L820 376" stroke="#0f766e" stroke-width="7" stroke-linecap="round" stroke-linejoin="round"/>
    <path d="M838 340H878M838 390H878M790 438H858" stroke="#67e8f9" stroke-width="8" stroke-linecap="round"/>
    <rect x="806" y="232" width="50" height="50" rx="25" fill="#e0f2fe"/>
    <path d="M812 257H850" stroke="#0f766e" stroke-width="6" stroke-linecap="round"/>
  </g>
  <text x="830" y="548" text-anchor="middle" class="stage">稳定模板</text>
  <text x="830" y="579" text-anchor="middle" class="small">固定输入输出格式</text>

  <g filter="url(#shadow)">
    <rect x="1025" y="248" width="210" height="210" rx="28" fill="url(#mark)"/>
    <path d="M1078 405C1098 340 1114 302 1130 302C1146 302 1162 340 1182 405" stroke="#ffffff" stroke-width="10" stroke-linecap="round" stroke-linejoin="round"/>
    <path d="M1103 362H1157" stroke="#ffffff" stroke-width="9" stroke-linecap="round"/>
    <circle cx="1078" cy="405" r="14" fill="#b7f7e7"/>
    <circle cx="1130" cy="302" r="14" fill="#eff6ff"/>
    <circle cx="1182" cy="405" r="14" fill="#99f6e4"/>
    <path d="M1188 292L1206 310L1242 270" stroke="#d1fae5" stroke-width="10" stroke-linecap="round" stroke-linejoin="round"/>
  </g>
  <text x="1130" y="512" text-anchor="middle" class="stage">本地 Skill</text>
  <text x="1130" y="543" text-anchor="middle" class="small">固化流程与规则</text>

  <g filter="url(#shadow)">
    <rect x="1320" y="260" width="230" height="245" rx="24" fill="#ffffff" stroke="#dbeafe"/>
    <rect x="1350" y="305" width="170" height="155" rx="18" fill="#eff6ff" stroke="#bfdbfe" stroke-width="3"/>
    <rect x="1372" y="330" width="42" height="48" rx="10" fill="#bfdbfe"/>
    <rect x="1424" y="330" width="42" height="48" rx="10" fill="#fde68a"/>
    <rect x="1476" y="330" width="22" height="48" rx="10" fill="#99f6e4"/>
    <rect x="1372" y="392" width="62" height="42" rx="10" fill="#ffffff"/>
    <rect x="1446" y="392" width="52" height="42" rx="10" fill="#ffffff"/>
    <circle cx="1382" cy="438" r="10" fill="#2563eb"/>
    <circle cx="1450" cy="438" r="10" fill="#0f766e"/>
    <circle cx="1512" cy="292" r="22" fill="#dbeafe"/>
    <circle cx="1512" cy="292" r="8" fill="#64748b"/>
    <circle cx="1488" cy="292" r="8" fill="#64748b"/>
  </g>
  <text x="1435" y="548" text-anchor="middle" class="stage">部门工作流</text>
  <text x="1435" y="579" text-anchor="middle" class="small">多人复用、持续迭代</text>

  <path d="M335 382H390M645 382H700M955 382H1010M1245 382H1305" stroke="#0f766e" stroke-width="8" stroke-linecap="round"/>
  <path d="M382 366L400 382L382 398M692 366L710 382L692 398M1002 366L1020 382L1002 398M1297 366L1315 382L1297 398" stroke="#0f766e" stroke-width="7" stroke-linecap="round" stroke-linejoin="round"/>

  <g opacity="0.85">
    <line x1="190" y1="620" x2="1390" y2="620" stroke="#0f766e" stroke-width="4" stroke-linecap="round" stroke-dasharray="10 14"/>
    <circle cx="190" cy="620" r="22" fill="#ffffff" stroke="#ccfbf1" stroke-width="6"/>
    <circle cx="520" cy="620" r="22" fill="#ffffff" stroke="#ccfbf1" stroke-width="6"/>
    <circle cx="830" cy="620" r="22" fill="#ffffff" stroke="#ccfbf1" stroke-width="6"/>
    <circle cx="1140" cy="620" r="22" fill="#ffffff" stroke="#ccfbf1" stroke-width="6"/>
    <path d="M183 611L202 620L183 629V611ZM513 611L532 620L513 629V611ZM823 611L842 620L823 629V611ZM1133 611L1152 620L1133 629V611Z" fill="#0f766e"/>
  </g>

  <g filter="url(#shadow)">
    <rect x="120" y="705" width="1360" height="110" rx="28" fill="#f8fafc" stroke="#e2e8f0"/>
    <rect x="180" y="740" width="72" height="45" rx="10" fill="#0f766e" opacity="0.85"/>
    <rect x="300" y="735" width="92" height="56" rx="10" fill="#ffffff" stroke="#bfdbfe"/>
    <path d="M320 756H370M320 774H356" stroke="#93c5fd" stroke-width="6" stroke-linecap="round"/>
    <rect x="465" y="735" width="100" height="56" rx="10" fill="#ffffff" stroke="#bfdbfe"/>
    <path d="M488 755L498 765L518 742M488 778L498 788L518 765" stroke="#0f766e" stroke-width="5" stroke-linecap="round" stroke-linejoin="round"/>
    <rect x="640" y="735" width="100" height="56" rx="10" fill="#ffffff" stroke="#bfdbfe"/>
    <circle cx="690" cy="764" r="22" fill="#bfdbfe"/>
    <path d="M683 754L705 764L683 774V754Z" fill="#2563eb"/>
    <rect x="815" y="735" width="100" height="56" rx="10" fill="#ffffff" stroke="#bfdbfe"/>
    <path d="M842 760H890M842 778H875" stroke="#cbd5e1" stroke-width="6" stroke-linecap="round"/>
    <circle cx="905" cy="724" r="18" fill="#fbbf24"/>
    <rect x="1010" y="735" width="170" height="56" rx="18" fill="#ffffff" stroke="#bfdbfe"/>
    <circle cx="1040" cy="764" r="16" fill="#93c5fd"/>
    <circle cx="1084" cy="764" r="16" fill="#99f6e4"/>
    <path d="M1118 764H1160" stroke="#0f766e" stroke-width="7" stroke-linecap="round"/>
    <path d="M1260 735H1405C1424 735 1440 751 1440 770V792H1260V735Z" fill="#e2e8f0"/>
    <rect x="1280" y="705" width="54" height="86" rx="10" fill="#2563eb" opacity="0.85"/>
    <rect x="1348" y="720" width="54" height="71" rx="10" fill="#0f766e" opacity="0.85"/>
  </g>
  <rect x="245" y="828" width="1110" height="48" rx="24" fill="#ecfeff" stroke="#99f6e4"/>
  <text x="800" y="860" text-anchor="middle" class="ribbon">Record &amp; Replay：录制脱敏演示 → 复盘判断点 → 改进 Skill</text>
</svg>
